<?xml version="1.0" standalone="no"?>
<!DOCTYPE svg PUBLIC "-//W3C//DTD SVG 20010904//EN"
 "http://www.w3.org/TR/2001/REC-SVG-20010904/DTD/svg10.dtd">
<svg version="1.0" xmlns="http://www.w3.org/2000/svg"
 width="640.000000pt" height="640.000000pt" viewBox="0 0 640.000000 640.000000"
 preserveAspectRatio="xMidYMid meet">

<g transform="translate(0.000000,640.000000) scale(0.100000,-0.100000)"
fill="#000000" stroke="none">
<path d="M2815 5484 c-66 -20 -136 -40 -155 -46 -19 -6 -45 -19 -58 -29 -13
-10 -49 -25 -80 -34 -70 -21 -182 -77 -244 -122 -28 -20 -63 -59 -85 -96 -20
-34 -52 -78 -69 -97 -18 -20 -39 -54 -48 -75 -31 -82 -82 -286 -91 -365 -7
-61 -23 -175 -32 -230 -4 -25 -7 -85 -7 -135 0 -65 -3 -93 -13 -100 -12 -9
-11 -15 6 -37 12 -14 21 -36 21 -48 0 -11 7 -34 15 -50 9 -18 13 -45 11 -72
-3 -24 -5 -46 -5 -50 -1 -5 -8 -8 -16 -8 -8 0 -30 -14 -49 -31 -34 -29 -54
-82 -47 -118 5 -28 36 -60 57 -61 15 0 24 -8 28 -25 5 -18 15 -27 37 -32 26
-5 30 -9 25 -28 -3 -13 0 -38 8 -56 7 -19 11 -40 9 -47 -8 -20 -59 -42 -98
-42 -33 0 -35 -1 -21 -16 21 -21 74 -35 103 -28 25 7 23 20 23 -135 0 -36 4
-69 9 -75 5 -6 17 -36 27 -66 10 -30 22 -58 27 -61 5 -4 11 -21 13 -40 2 -18
12 -44 22 -57 9 -14 25 -39 35 -56 11 -17 30 -42 43 -57 26 -27 32 -44 12 -34
-7 4 4 -9 25 -29 22 -19 36 -40 32 -45 -3 -6 8 -19 24 -29 18 -9 29 -23 26
-30 -3 -7 0 -10 6 -7 5 4 28 -11 50 -34 22 -23 45 -41 50 -41 5 0 9 -4 9 -9 0
-5 10 -11 23 -15 13 -3 40 -21 59 -40 32 -31 36 -41 36 -83 -1 -26 2 -56 7
-65 4 -10 5 -24 2 -32 -6 -16 19 -42 48 -49 18 -4 17 -5 -3 -6 -13 0 -20 -5
-17 -11 3 -5 8 -28 10 -51 3 -24 9 -47 15 -53 5 -5 10 -18 10 -28 0 -10 5 -18
11 -18 5 0 7 -4 4 -10 -3 -6 -1 -10 5 -10 6 0 28 -12 48 -27 20 -15 38 -28 40
-28 1 -1 -5 -16 -14 -33 -8 -18 -20 -30 -25 -27 -5 4 -9 -5 -9 -19 0 -19 5
-26 20 -26 11 0 20 5 20 10 0 6 8 10 19 10 10 0 18 6 17 13 0 6 3 12 9 12 5 0
9 -4 7 -10 -2 -5 2 -4 9 2 13 13 21 36 20 66 0 11 8 17 24 17 13 0 27 5 30 10
3 6 20 10 36 10 16 0 45 6 64 14 32 14 59 6 35 -9 -8 -5 -8 -11 -1 -19 6 -7 8
-16 4 -19 -3 -4 2 -7 11 -7 12 0 16 5 12 15 -8 22 4 45 23 45 14 -1 14 -2 -1
-14 -13 -9 -14 -16 -6 -24 9 -9 6 -16 -9 -30 -20 -17 -20 -19 -5 -30 15 -10
15 -12 -5 -18 -13 -3 -20 -10 -17 -15 3 -5 0 -9 -6 -9 -6 0 -8 -4 -5 -10 3 -5
15 -10 26 -10 25 0 25 -16 -1 -23 -25 -6 -27 -29 -2 -26 9 1 26 0 37 -1 l20
-1 -20 -9 c-19 -7 -19 -8 -2 -15 15 -6 16 -10 5 -16 -7 -5 -17 -9 -23 -9 -5 0
-3 5 5 10 12 8 10 10 -8 10 -15 0 -22 -5 -19 -12 6 -20 -137 -74 -260 -98 -27
-5 -100 -20 -163 -34 -108 -23 -194 -31 -283 -27 -30 1 -47 10 -81 43 -24 24
-51 57 -59 73 l-16 30 -1 -30 c-1 -27 -2 -28 -14 -12 -25 33 -3 185 36 256 24
42 13 56 -14 19 -10 -15 -42 -39 -70 -53 -27 -14 -68 -40 -91 -59 -48 -39
-168 -105 -359 -199 -98 -48 -158 -85 -223 -138 -48 -40 -120 -91 -159 -113
-90 -52 -274 -203 -391 -323 -50 -50 -101 -94 -115 -97 -14 -3 -43 -9 -65 -14
-38 -9 -38 -10 -10 -12 17 -1 34 -2 39 -1 5 1 6 -6 2 -15 -3 -9 -11 -37 -17
-63 -17 -72 -30 -101 -46 -101 -12 0 -13 -3 -5 -13 11 -13 9 -24 -19 -139 -8
-30 -15 -38 -32 -38 -12 0 -29 -5 -37 -10 -12 -7 -8 -11 19 -16 l33 -7 -6
-106 c-4 -58 -9 -157 -12 -219 -3 -63 -11 -135 -18 -160 -7 -26 -14 -51 -16
-57 -1 -5 -2 -40 -1 -77 l1 -68 2915 0 2915 0 0 530 0 530 -292 -5 c-160 -3
-295 -8 -300 -11 -4 -3 -8 0 -8 6 0 6 -4 9 -9 6 -14 -9 -41 4 -41 20 0 8 6 11
16 7 9 -3 20 0 25 8 7 11 12 12 29 2 24 -16 104 -18 95 -3 -3 6 2 10 12 11 10
0 29 2 43 4 74 11 194 13 180 4 -12 -9 -10 -9 5 -3 11 4 63 9 115 11 52 2 103
5 113 6 15 1 17 13 17 84 l0 83 -142 -5 c-79 -2 -233 -7 -344 -10 l-201 -5
-10 44 c-6 28 -6 50 -1 58 7 9 8 8 4 -6 -5 -15 -4 -16 7 -8 7 6 22 11 32 11
11 0 43 3 70 6 60 7 331 24 432 28 40 1 73 5 73 9 0 4 6 6 13 4 6 -3 24 -7 40
-10 l27 -6 0 65 0 65 -72 -5 c-91 -5 -258 -13 -495 -21 l-182 -7 -15 37 c-25
60 -24 68 9 77 20 6 32 5 37 -4 6 -9 8 -9 8 2 0 8 6 11 17 7 9 -4 20 -2 23 5
4 6 18 11 31 11 13 0 58 -1 99 -1 41 -1 86 2 100 5 25 6 59 10 180 19 129 11
156 13 208 15 l52 3 0 44 0 43 -72 0 c-40 0 -183 -7 -318 -14 -135 -8 -283
-14 -330 -15 -47 -1 -99 -4 -116 -7 -27 -5 -35 0 -76 48 l-46 54 61 -2 c33 0
81 4 106 9 25 5 54 10 64 10 9 1 17 5 17 9 0 5 32 7 71 4 53 -3 72 -1 76 9 4
11 9 12 23 3 14 -9 22 -9 35 2 11 9 19 10 23 3 4 -6 23 -9 42 -7 53 5 103 5
125 1 11 -3 30 5 43 16 19 18 22 18 22 4 0 -22 8 -21 33 0 15 13 21 15 24 6 5
-14 53 -18 53 -5 0 4 30 7 68 7 l67 0 3 54 3 54 -73 -6 c-40 -4 -201 -13 -358
-22 -157 -8 -377 -20 -490 -26 -301 -18 -280 -20 -397 39 -57 29 -103 54 -103
56 0 7 55 1 69 -8 8 -5 16 -4 20 3 7 10 72 7 109 -4 6 -3 12 -1 12 3 0 11 64
8 73 -3 6 -7 10 -7 13 0 4 10 146 10 171 1 6 -3 14 -2 18 2 3 4 18 7 33 8 15
1 52 5 82 8 200 24 236 29 244 33 4 3 11 1 15 -5 4 -7 30 -7 81 0 41 5 95 11
120 13 25 2 77 7 115 11 39 3 105 7 148 8 89 1 97 7 97 74 0 42 0 42 -37 42
-21 0 -132 -7 -248 -15 -248 -18 -283 -20 -525 -34 -102 -7 -318 -21 -480 -32
l-295 -20 -130 51 c-210 82 -204 77 -105 78 154 1 402 11 407 16 3 2 16 1 29
-4 14 -6 26 -6 29 0 6 9 21 11 108 11 26 0 47 4 47 9 0 6 7 10 15 10 8 0 15
-4 15 -10 0 -13 27 -13 32 0 2 5 18 6 41 1 20 -5 39 -6 42 -2 4 8 70 5 84 -3
5 -3 14 1 21 9 7 8 18 15 25 15 7 0 15 6 18 14 5 13 11 13 46 -1 31 -12 58
-14 125 -8 54 4 86 11 86 18 0 9 2 9 8 1 8 -13 66 -29 58 -16 -3 5 18 9 47 9
29 0 84 3 122 7 39 3 102 9 140 11 117 9 130 10 141 18 6 3 33 6 60 6 77 -2
74 -3 74 51 0 41 -3 50 -17 50 -63 0 -789 -56 -838 -65 -16 -3 -77 -7 -135 -9
-90 -4 -406 -24 -620 -41 -36 -2 -105 -7 -155 -11 -49 -3 -103 -7 -120 -9 -16
-2 -79 -6 -140 -10 -100 -6 -113 -4 -142 14 -19 12 -33 29 -33 41 0 24 -36 49
-76 52 -37 2 -54 15 -47 36 4 14 3 15 -6 2 -8 -12 -13 -12 -23 -2 -9 9 -8 12
7 13 11 1 25 0 30 -1 30 -7 142 -4 152 3 7 5 46 7 88 5 41 -2 75 1 75 5 0 5 7
6 16 3 9 -3 34 -1 57 5 47 13 97 13 187 3 67 -7 87 -7 205 -1 89 5 85 4 86 25
0 11 2 12 6 4 3 -9 9 -10 17 -3 14 12 66 15 114 8 78 -13 157 -10 189 7 41 21
152 37 175 25 9 -5 28 -9 42 -9 14 0 28 -5 31 -10 3 -6 17 -7 31 -4 13 3 24 2
24 -3 0 -11 153 -3 161 8 3 5 23 7 45 3 46 -7 124 -5 137 3 5 3 40 5 77 4 38
-1 71 3 74 7 3 5 35 10 71 10 36 1 73 5 82 10 10 5 24 7 31 5 8 -3 42 -2 78 2
l64 7 0 51 0 52 -277 -22 c-153 -12 -345 -27 -428 -33 -82 -6 -166 -13 -185
-15 -19 -2 -100 -9 -180 -15 -80 -6 -176 -15 -215 -20 -38 -6 -124 -12 -190
-15 -66 -3 -140 -7 -165 -10 -25 -3 -133 -12 -240 -20 -107 -8 -253 -19 -325
-25 -71 -6 -157 -13 -190 -15 -62 -4 -113 -13 -126 -21 -4 -2 -11 1 -14 7 -4
5 -13 8 -21 5 -8 -3 -14 1 -14 9 0 8 -8 15 -18 15 -22 0 -102 112 -102 142 0
15 3 18 13 10 8 -7 17 -7 30 2 25 19 21 25 -15 21 -17 -3 -38 0 -45 6 -25 21
-11 341 16 359 13 8 22 46 27 103 2 29 6 63 10 77 4 14 7 37 7 53 0 31 1 31
29 16 52 -28 143 25 154 89 3 20 18 78 33 127 24 84 26 102 24 258 -3 193 -10
220 -61 225 -17 2 -32 4 -32 6 0 1 11 35 25 74 14 40 29 96 33 125 7 51 8 52
44 55 21 2 46 -2 58 -8 16 -9 22 -8 26 5 10 24 67 19 92 -8 12 -13 19 -27 15
-32 -5 -4 0 -5 10 -2 15 6 17 3 12 -13 -5 -16 3 -24 47 -45 80 -37 209 -77
227 -69 30 12 71 12 71 0 0 -13 34 -15 46 -3 4 4 14 7 22 7 11 0 12 -3 3 -14
-8 -10 -9 -16 -1 -21 5 -3 10 -1 10 5 0 6 10 8 28 4 22 -5 25 -4 15 7 -18 18
-16 30 2 23 8 -4 15 -12 15 -19 0 -21 33 -28 46 -10 7 9 18 13 28 9 10 -4 18
1 23 12 4 11 15 28 25 38 17 19 18 19 37 -5 23 -27 28 -47 7 -30 -18 15 -48 3
-44 -18 3 -16 24 -18 116 -12 21 1 24 3 12 11 -12 7 -12 12 -2 22 10 10 17 10
32 0 29 -18 46 -15 64 13 21 31 20 35 -4 35 -13 0 -20 7 -20 19 0 11 -11 40
-23 64 -33 60 -37 80 -21 102 18 25 18 46 0 39 -8 -3 -23 -1 -33 5 -15 9 -11
10 20 11 21 0 66 6 100 14 34 8 90 20 125 27 34 7 62 17 62 22 0 4 26 6 58 4
43 -2 63 1 82 15 21 15 31 16 60 8 23 -7 36 -7 38 0 4 12 32 14 32 2 0 -9 65
-8 97 2 12 4 24 13 27 21 7 20 42 19 50 -1 7 -18 41 -14 99 11 9 4 24 4 33 1
12 -5 -9 -30 -86 -103 -56 -53 -119 -122 -139 -152 -58 -85 -104 -179 -98
-200 3 -13 -7 -32 -29 -55 -23 -24 -34 -46 -34 -66 l0 -30 48 8 c26 3 62 7 80
7 17 0 32 3 32 6 0 4 14 5 30 3 18 -2 30 1 30 8 0 6 3 9 6 6 3 -4 14 2 25 13
24 24 36 24 49 -1 6 -11 17 -20 24 -20 15 0 46 42 46 61 0 14 -46 70 -52 63
-3 -2 -5 9 -5 25 0 26 3 29 18 20 10 -5 21 -14 25 -20 4 -7 17 -1 34 16 35 34
52 15 19 -21 -30 -32 -33 -99 -5 -120 14 -10 23 -11 33 -3 8 7 36 10 68 7 46
-4 55 -2 50 10 -4 11 -2 12 7 5 14 -12 68 -15 68 -4 0 3 14 12 31 20 23 10 33
11 38 2 4 -6 17 -13 30 -16 12 -2 19 0 16 5 -10 16 14 50 34 50 11 0 22 -7 25
-16 5 -13 9 -14 21 -4 8 7 15 19 15 26 0 8 5 14 11 14 6 0 8 -8 4 -19 -4 -13
0 -20 17 -24 12 -4 25 -2 28 4 5 6 15 6 33 0 l26 -10 1 381 0 380 -32 -5 c-18
-4 -199 -29 -403 -58 -203 -28 -739 -105 -1190 -169 -451 -64 -824 -114 -828
-110 -11 10 -22 130 -12 130 4 0 96 13 204 30 108 16 266 39 351 50 85 12 532
75 994 141 644 92 841 117 852 108 10 -8 14 -8 14 0 0 6 11 13 25 17 39 10 29
24 -17 25 -24 1 -34 3 -23 6 11 2 30 6 43 9 12 2 22 10 22 17 0 11 -24 10
-117 -4 -65 -10 -271 -40 -458 -68 -187 -28 -482 -71 -655 -96 -173 -25 -403
-59 -510 -75 -252 -38 -697 -100 -719 -100 -14 0 -24 28 -53 148 -20 81 -35
149 -33 150 2 2 162 28 357 57 194 30 414 64 488 75 149 23 312 48 525 80 77
11 255 38 395 60 140 22 371 57 514 79 142 22 261 43 264 46 11 11 -55 4 -299
-35 -316 -49 -979 -152 -1199 -185 -91 -14 -221 -34 -290 -45 -69 -11 -201
-31 -295 -45 -154 -24 -367 -58 -437 -70 -25 -4 -28 0 -48 60 -43 129 -150
219 -370 310 -45 19 -96 47 -115 64 -19 17 -52 35 -73 41 -21 5 -47 19 -56 29
-32 36 -115 63 -200 67 -70 3 -98 -2 -201 -32z m3462 -555 c-20 -5 -166 -27
-325 -49 -158 -23 -396 -56 -529 -75 -237 -34 -291 -40 -281 -30 4 4 207 35
428 66 41 5 170 24 285 40 345 51 515 70 422 48z m-1189 -165 c-8 -8 -400 -65
-418 -61 -8 2 37 11 100 21 63 10 153 23 200 31 100 15 125 17 118 9z m-488
-74 c-14 -4 -40 -8 -59 -9 -19 -1 -60 -6 -90 -11 -81 -15 -319 -50 -338 -50
-9 0 -14 3 -11 6 7 7 452 72 493 72 29 0 29 0 5 -8z m-617 -87 c-7 -2 -21 -2
-30 0 -10 3 -4 5 12 5 17 0 24 -2 18 -5z m-1693 -167 c0 -13 6 -26 14 -29 21
-8 27 -45 7 -52 -19 -6 -66 -75 -51 -75 7 0 8 -5 3 -12 -14 -24 -11 -36 11
-43 20 -7 20 -7 -4 -14 l-25 -8 27 -8 c16 -4 25 -11 22 -16 -3 -5 -10 -7 -15
-4 -5 4 -9 -2 -10 -12 0 -10 -2 -30 -4 -45 -2 -18 1 -28 10 -28 7 0 15 -9 18
-20 6 -25 58 -28 81 -5 15 15 76 21 76 7 0 -4 -13 -13 -30 -20 -26 -12 -43
-34 -22 -31 4 1 18 1 32 0 19 -1 22 -3 10 -11 -11 -7 -9 -11 13 -19 16 -6 36
-11 45 -11 9 0 25 -7 35 -15 11 -7 25 -11 33 -8 8 3 14 0 14 -6 0 -6 -6 -11
-12 -11 -9 0 -8 -4 2 -10 8 -5 11 -10 6 -10 -6 0 -1 -7 10 -15 17 -12 20 -12
31 2 7 9 16 14 19 10 3 -3 18 -1 32 4 18 7 28 6 34 -3 6 -10 8 -9 8 3 0 11 15
20 47 29 26 6 53 16 60 22 7 5 17 7 23 3 10 -6 14 6 11 38 -1 9 3 17 8 17 6 0
11 -10 12 -22 1 -34 27 39 28 78 1 40 21 79 41 79 20 0 50 -38 50 -64 0 -11
-9 -25 -20 -31 -11 -6 -20 -15 -20 -21 0 -6 5 -7 11 -3 7 4 9 0 5 -14 -4 -11
-2 -23 5 -27 8 -6 7 -10 -2 -16 -12 -8 -12 -11 0 -18 17 -11 23 -74 7 -68 -6
3 -10 10 -8 16 1 7 -2 9 -8 6 -8 -5 -6 -14 4 -28 24 -33 47 -89 44 -106 -1 -9
0 -21 4 -26 12 -20 13 -98 0 -103 -6 -2 -12 -10 -12 -17 0 -7 -9 -15 -20 -18
-11 -3 -20 -2 -20 2 0 4 -13 6 -30 3 -16 -2 -30 -9 -30 -14 0 -14 -30 -42 -37
-34 -3 3 0 13 8 23 12 15 12 16 -4 10 -10 -4 -38 -1 -63 5 -39 11 -50 10 -74
-4 -27 -15 -28 -15 -38 6 -11 21 -11 21 -11 -2 -1 -29 -22 -25 -36 6 -12 26
-41 28 -67 5 -24 -22 -23 -32 4 -25 14 3 19 2 14 -6 -4 -7 -27 -12 -52 -12
-32 0 -44 -4 -44 -15 0 -8 -4 -15 -10 -15 -5 0 -10 5 -10 10 0 6 -5 10 -11 10
-8 0 -8 -5 1 -15 17 -20 5 -48 -17 -41 -14 4 -18 0 -20 -20 -1 -19 5 -28 19
-32 14 -3 16 -7 7 -13 -10 -6 -10 -11 0 -23 7 -9 17 -13 22 -10 5 3 14 2 21
-2 8 -5 6 -10 -8 -15 -14 -6 -15 -8 -3 -8 9 -1 44 26 79 59 35 34 69 59 76 56
8 -3 11 1 7 10 -3 7 -1 14 5 14 5 0 13 -8 16 -17 6 -15 8 -15 17 -3 8 11 12
12 16 3 2 -7 11 -13 19 -13 21 0 17 -38 -6 -50 -16 -9 -20 -8 -20 5 0 8 -5 15
-11 15 -5 0 -7 -5 -4 -10 10 -16 -5 -50 -21 -50 -8 0 -14 -6 -14 -12 0 -8 -3
-9 -8 -3 -9 13 -63 37 -69 31 -3 -2 5 -9 16 -16 12 -6 19 -15 16 -21 -4 -5
-14 -5 -26 1 -14 8 -19 8 -17 -2 2 -7 -8 -14 -22 -16 -26 -4 -72 -32 -52 -32
23 0 13 -38 -10 -42 -24 -3 -24 -3 -47 -132 -10 -56 -22 -75 -46 -76 -6 0 -11
8 -12 18 -2 14 -5 33 -12 75 0 4 -8 7 -16 7 -8 0 -15 9 -15 19 0 11 -6 21 -12
24 -10 4 -10 7 0 18 9 10 12 10 12 0 0 -7 5 -9 12 -5 8 5 5 11 -7 20 -14 10
-22 11 -32 3 -17 -15 -18 12 -1 29 17 17 2 28 -17 12 -12 -10 -15 -10 -15 1 0
25 16 40 36 33 16 -5 16 -4 4 5 -25 18 -37 13 -54 -21 -15 -30 -17 -31 -15 -8
3 54 0 63 -16 50 -12 -10 -15 -10 -15 2 0 24 -21 38 -41 27 -15 -8 -17 -6 -12
7 5 14 3 15 -15 5 -28 -15 -32 -14 -32 7 0 10 -7 28 -16 41 -19 27 -22 57 -28
286 -4 157 -2 183 25 335 40 215 64 292 108 336 43 42 91 48 91 10z m3715
-226 c-3 -5 -13 -10 -21 -10 -8 0 -12 5 -9 10 3 6 13 10 21 10 8 0 12 -4 9
-10z m45 1 c0 -6 -4 -13 -10 -16 -5 -3 -10 1 -10 9 0 9 5 16 10 16 6 0 10 -4
10 -9z m310 -5 c0 -8 -4 -18 -10 -21 -5 -3 -10 3 -10 14 0 12 5 21 10 21 6 0
10 -6 10 -14z m-64 -51 c3 -29 0 -35 -17 -35 -18 0 -19 2 -6 14 9 9 12 26 9
43 -2 15 -1 25 3 20 5 -4 10 -23 11 -42z m-119 -45 c4 -26 -13 -26 -27 0 -13
24 -3 47 13 31 6 -6 12 -20 14 -31z m163 4 c0 -17 -22 -14 -28 4 -2 7 3 12 12
12 9 0 16 -7 16 -16z m-213 -11 c2 -6 -3 -13 -12 -16 -10 -5 -15 0 -15 14 0
21 21 22 27 2z m-154 0 c-7 -2 -13 -11 -13 -19 0 -9 -5 -12 -10 -9 -13 8 6 35
24 34 7 0 6 -2 -1 -6z m-353 -32 c0 -5 3 -16 6 -25 3 -9 2 -16 -4 -16 -5 0
-12 11 -14 25 -3 14 -1 25 3 25 5 0 9 -4 9 -9z m-3590 -373 c0 -40 -10 -47
-35 -24 -33 31 -41 85 -19 127 l17 34 19 -60 c10 -33 18 -68 18 -77z m70 -259
c0 -3 -7 -6 -15 -6 -17 0 -17 0 -9 22 5 13 8 14 15 3 5 -7 9 -16 9 -19z m573
-339 c-3 -11 -12 -20 -21 -20 -13 0 -12 3 3 20 10 11 19 20 21 20 1 0 0 -9 -3
-20z m199 -201 c22 -11 49 -18 59 -16 11 3 20 2 20 -1 1 -4 3 -23 4 -42 3 -24
1 -29 -4 -16 -5 14 -10 16 -15 8 -11 -19 -26 -14 -19 6 5 14 4 15 -8 6 -8 -6
-28 -14 -46 -17 -25 -5 -32 -3 -35 11 -2 12 -6 13 -11 5 -4 -6 -1 -18 8 -26
13 -13 12 -16 -8 -21 -39 -10 -53 -7 -32 7 11 9 14 16 7 21 -6 3 -14 2 -17 -4
-10 -16 -46 -1 -74 31 -14 16 -32 29 -41 30 -8 1 1 5 20 9 24 6 37 5 42 -3 5
-8 8 -8 8 -1 0 9 54 29 88 33 7 0 31 -8 54 -20z m948 -455 c-10 -21 -19 -35
-20 -31 0 14 30 80 35 75 3 -2 -4 -22 -15 -44z m1628 -326 c-2 -18 -11 -24
-35 -26 -37 -4 -41 3 -16 30 24 26 55 24 51 -4z m-2668 -48 c0 -5 -4 -10 -10
-10 -5 0 -10 5 -10 10 0 6 5 10 10 10 6 0 10 -4 10 -10z m-20 -60 c0 -5 -4
-10 -10 -10 -5 0 -10 5 -10 10 0 6 5 10 10 10 6 0 10 -4 10 -10z"/>
<path d="M2455 3600 c-3 -5 -1 -10 4 -10 6 0 11 5 11 10 0 6 -2 10 -4 10 -3 0
-8 -4 -11 -10z"/>
<path d="M2528 3603 c7 -3 16 -2 19 1 4 3 -2 6 -13 5 -11 0 -14 -3 -6 -6z"/>
<path d="M1893 4323 c9 -2 23 -2 30 0 6 3 -1 5 -18 5 -16 0 -22 -2 -12 -5z"/>
<path d="M1778 4315 c-3 -3 -43 -10 -89 -16 -46 -5 -86 -14 -89 -18 -3 -4 -14
-13 -25 -20 -24 -14 -8 -13 205 15 139 18 210 41 90 29 -47 -5 -61 -4 -50 4
12 9 10 11 -11 11 -14 0 -28 -2 -31 -5z"/>
<path d="M1515 4270 c-3 -6 1 -7 9 -4 18 7 21 14 7 14 -6 0 -13 -4 -16 -10z"/>
<path d="M1415 4261 c-16 -3 -29 -10 -27 -16 2 -5 -5 -12 -15 -16 -30 -12 7
-11 67 2 46 10 50 12 33 25 -10 7 -20 13 -23 12 -3 0 -18 -3 -35 -7z"/>
<path d="M1276 4226 c3 -9 11 -16 16 -16 13 0 5 23 -10 28 -7 2 -10 -2 -6 -12z"/>
<path d="M1315 4230 c-3 -5 1 -10 10 -10 9 0 13 5 10 10 -3 6 -8 10 -10 10 -2
0 -7 -4 -10 -10z"/>
<path d="M1057 4213 c-9 -2 -15 -9 -12 -14 8 -12 85 -12 85 0 0 5 8 12 18 14
9 3 -3 5 -28 5 -25 0 -53 -2 -63 -5z"/>
<path d="M935 4190 c-3 -6 5 -10 19 -10 14 0 28 5 31 10 3 6 -5 10 -19 10 -14
0 -28 -4 -31 -10z"/>
<path d="M1530 4105 c-593 -82 -765 -106 -1137 -155 -205 -28 -377 -50 -383
-50 -6 0 -10 -26 -10 -61 l0 -61 28 6 c111 22 468 66 622 76 74 4 162 15 195
24 33 9 71 14 85 11 14 -3 72 4 130 14 58 11 173 27 255 36 83 9 205 25 272
36 67 11 143 21 168 22 l46 2 21 58 c11 32 25 60 29 63 11 6 12 24 2 23 -5 -1
-150 -21 -323 -44z"/>
<path d="M350 4113 c-34 -3 -234 -28 -312 -39 -24 -4 -38 -11 -38 -20 0 -16
13 -17 95 -5 33 5 94 14 135 20 122 18 270 57 183 49 -16 -2 -44 -4 -63 -5z"/>
<path d="M1857 4092 c-30 -33 -43 -119 -38 -242 l3 -65 14 50 c8 28 32 87 54
133 32 66 38 87 30 102 -17 32 -45 42 -63 22z"/>
<path d="M6303 3866 c-43 -6 -82 -19 -94 -30 -21 -17 -23 -18 -35 -2 -11 16
-22 16 -116 6 -189 -20 -188 -19 -188 -40 0 -10 -4 -22 -10 -25 -5 -3 -10 0
-10 7 0 33 -20 35 -158 16 -75 -10 -164 -20 -196 -23 -81 -7 -93 -11 -104 -44
-12 -33 -2 -54 20 -46 9 4 19 1 23 -4 4 -8 15 -6 35 6 23 13 32 14 43 5 12
-10 16 -9 20 7 3 13 13 19 26 18 12 -1 21 -4 21 -8 0 -9 129 -8 135 1 3 4 21
4 40 0 21 -5 38 -4 41 2 3 5 12 7 19 4 8 -3 27 -1 42 3 16 5 38 4 51 0 13 -5
33 -4 50 2 36 14 69 20 116 20 25 0 44 6 53 17 12 16 14 16 28 -2 14 -19 15
-18 24 5 7 17 10 19 10 7 1 -10 6 -18 11 -18 6 0 10 8 10 18 0 12 3 13 8 5 4
-7 24 -12 43 -11 20 1 42 -3 49 -7 9 -5 11 -4 6 4 -6 9 3 11 36 9 l43 -3 3 58
c2 42 0 57 -10 56 -7 -1 -46 -7 -85 -13z"/>
<path d="M1832 3720 c0 -14 2 -19 5 -12 2 6 2 18 0 25 -3 6 -5 1 -5 -13z"/>
<path d="M4970 3703 c-24 -3 -49 -8 -55 -13 -6 -5 -21 -7 -33 -3 -12 3 -29 0
-38 -7 -8 -7 -33 -13 -54 -12 -22 1 -40 -3 -40 -8 0 -6 12 -11 28 -11 15 -1
43 -2 62 -3 19 -1 40 2 46 6 6 4 41 10 78 13 37 3 72 7 77 11 16 9 10 34 -8
32 -10 -1 -38 -3 -63 -5z"/>
<path d="M5100 3696 c0 -9 5 -16 10 -16 6 0 10 4 10 9 0 6 -4 13 -10 16 -5 3
-10 -1 -10 -9z"/>
<path d="M1844 3668 c10 -45 25 -78 36 -78 17 0 11 23 -16 65 -22 34 -24 36
-20 13z"/>
<path d="M4705 3670 c-3 -5 -1 -10 4 -10 6 0 11 5 11 10 0 6 -2 10 -4 10 -3 0
-8 -4 -11 -10z"/>
<path d="M4657 3663 c-13 -12 -7 -23 13 -23 11 0 20 7 20 15 0 15 -21 21 -33
8z"/>
<path d="M4540 3639 c0 -5 5 -7 10 -4 6 3 10 8 10 11 0 2 -4 4 -10 4 -5 0 -10
-5 -10 -11z"/>
<path d="M4615 3640 c3 -5 10 -10 16 -10 5 0 9 5 9 10 0 6 -7 10 -16 10 -8 0
-12 -4 -9 -10z"/>
<path d="M6220 3630 c-194 -21 -262 -28 -350 -35 -36 -3 -76 -8 -90 -10 -14
-3 -43 -7 -65 -9 -421 -43 -403 -40 -411 -71 -3 -13 -3 -28 0 -34 6 -10 199
-7 281 5 70 10 109 14 160 19 28 3 70 7 95 10 95 11 136 15 168 14 18 0 38 3
44 7 5 4 27 8 47 10 60 5 105 12 124 19 11 5 17 2 17 -6 0 -10 3 -10 12 -1 7
7 35 12 64 12 75 0 84 6 84 51 0 21 -3 38 -7 38 -5 -1 -82 -9 -173 -19z"/>
<path d="M4290 3610 c0 -5 6 -10 14 -10 8 0 18 5 21 10 3 6 -3 10 -14 10 -12
0 -21 -4 -21 -10z"/>
<path d="M4350 3610 c0 -5 5 -10 10 -10 6 0 10 5 10 10 0 6 -4 10 -10 10 -5 0
-10 -4 -10 -10z"/>
<path d="M1966 3535 c-3 -9 0 -15 9 -15 8 0 15 7 15 15 0 8 -4 15 -9 15 -5 0
-11 -7 -15 -15z"/>
<path d="M4520 3425 c0 -8 9 -15 20 -15 11 0 20 7 20 15 0 8 -9 15 -20 15 -11
0 -20 -7 -20 -15z"/>
<path d="M6165 3390 c-88 -10 -191 -20 -230 -24 -38 -3 -113 -11 -165 -16 -52
-5 -162 -17 -245 -25 -82 -8 -193 -20 -245 -25 -149 -16 -360 -39 -420 -45
-80 -9 -98 -15 -103 -35 -5 -19 15 -22 133 -18 25 1 61 2 80 2 19 1 37 4 40 8
3 4 37 3 77 -2 40 -5 84 -5 101 -1 17 5 32 7 35 5 2 -3 17 0 32 6 19 7 31 7
40 0 9 -8 15 -8 20 0 3 6 10 8 15 5 14 -8 94 -14 105 -7 6 4 24 7 40 8 17 0
59 2 95 4 36 1 71 7 78 13 8 6 12 6 12 -2 0 -10 44 -7 80 6 22 8 54 8 67 0 7
-5 32 -3 55 4 24 6 78 13 121 14 43 2 84 9 92 15 7 6 26 8 41 6 16 -3 31 0 36
7 5 8 10 9 18 1 7 -7 33 -6 88 3 42 8 92 12 110 10 l32 -3 0 53 0 53 -37 -1
c-21 -1 -110 -9 -198 -19z"/>
<path d="M4476 3211 c-3 -5 1 -11 9 -15 18 -6 45 2 45 15 0 12 -47 12 -54 0z"/>
<path d="M4300 3185 c0 -8 5 -15 10 -15 6 0 10 7 10 15 0 8 -4 15 -10 15 -5 0
-10 -7 -10 -15z"/>
<path d="M4330 3179 c0 -11 5 -17 10 -14 6 3 10 13 10 21 0 8 -4 14 -10 14 -5
0 -10 -9 -10 -21z"/>
<path d="M6245 3164 c-77 -7 -268 -25 -425 -39 -157 -14 -321 -31 -365 -37
-89 -12 -98 -13 -208 -22 -79 -7 -127 -19 -127 -33 1 -13 50 -44 60 -38 5 3
35 10 67 16 32 6 61 16 65 22 6 9 8 9 8 0 0 -8 14 -13 34 -13 18 0 39 -7 47
-16 10 -13 26 -14 88 -8 42 4 85 10 96 14 11 4 32 4 47 -1 15 -4 30 -4 33 1 3
5 12 7 21 3 8 -3 58 0 112 7 53 7 120 14 147 17 113 8 141 11 155 16 8 3 47 8
85 10 39 3 103 11 143 17 l72 12 0 44 c0 24 -3 43 -7 43 -5 -1 -71 -7 -148
-15z"/>
<path d="M4670 3014 c-25 -2 -81 -8 -125 -13 -44 -6 -133 -16 -198 -22 -112
-11 -144 -20 -112 -33 8 -3 17 -1 21 5 3 6 13 7 23 4 28 -11 100 -15 106 -6 3
6 18 6 35 1 23 -7 115 -6 115 0 0 1 38 3 85 5 47 2 99 8 115 15 28 11 28 13
10 20 -13 6 -15 9 -5 9 13 1 13 2 0 11 -8 5 -17 9 -20 8 -3 -1 -25 -3 -50 -4z"/>
<path d="M6245 2929 c-55 -4 -152 -13 -215 -18 -63 -6 -173 -16 -245 -21 -71
-6 -194 -18 -273 -26 -79 -8 -184 -17 -235 -20 -51 -3 -146 -12 -212 -20 -66
-8 -156 -17 -200 -20 -93 -5 -294 -21 -445 -34 -58 -6 -157 -15 -220 -20 -63
-6 -151 -15 -195 -21 -44 -5 -108 -10 -143 -11 -38 -1 -67 -7 -73 -15 -13 -15
-22 -14 169 -14 68 0 138 3 155 7 28 6 135 9 155 4 24 -6 96 1 108 11 9 7 27
9 51 4 38 -8 105 -7 198 1 28 2 74 6 102 8 29 2 59 8 66 14 7 6 33 12 57 13
25 1 50 6 56 11 12 9 83 6 100 -4 35 -22 188 -24 389 -5 28 3 94 7 148 10 57
3 104 11 113 18 13 10 17 10 24 0 5 -9 18 -11 39 -6 18 4 58 8 89 10 31 2 98
6 147 10 50 3 104 6 120 6 17 0 44 5 61 10 17 5 69 11 115 13 46 2 99 7 117
11 31 7 32 9 32 56 0 56 17 52 -155 38z"/>
<path d="M2660 2099 c0 -5 5 -7 10 -4 6 3 10 8 10 11 0 2 -4 4 -10 4 -5 0 -10
-5 -10 -11z"/>
<path d="M2700 2080 c20 -13 33 -13 25 0 -3 6 -14 10 -23 10 -15 0 -15 -2 -2
-10z"/>
<path d="M2845 2070 c-3 -5 3 -10 14 -10 12 0 21 5 21 10 0 6 -6 10 -14 10 -8
0 -18 -4 -21 -10z"/>
<path d="M5025 2030 c3 -5 8 -10 11 -10 2 0 4 5 4 10 0 6 -5 10 -11 10 -5 0
-7 -4 -4 -10z"/>
<path d="M2744 1934 c-22 -22 -40 -34 -52 -31 -15 4 -14 6 5 12 12 4 24 14 28
23 5 14 4 15 -6 5 -7 -7 -28 -13 -47 -13 -18 0 -31 -4 -28 -8 3 -5 -8 -9 -24
-9 -30 0 -48 -8 -38 -18 3 -3 24 -7 47 -8 52 -2 54 -17 3 -17 -47 0 -78 -20
-69 -45 4 -10 13 -15 22 -12 9 4 12 1 9 -8 -8 -19 5 -37 19 -28 7 4 27 9 46
10 45 3 64 11 56 23 -3 5 -1 10 5 10 6 0 9 4 5 9 -3 5 5 12 17 14 13 2 3 5
-21 6 -39 1 -42 3 -30 17 7 9 23 20 36 25 13 5 23 14 23 21 0 7 10 18 22 23
24 11 36 35 18 35 -7 0 -28 -16 -46 -36z"/>
<path d="M5475 1810 c3 -5 8 -10 11 -10 2 0 4 5 4 10 0 6 -5 10 -11 10 -5 0
-7 -4 -4 -10z"/>
<path d="M21 714 c0 -11 3 -14 6 -6 3 7 2 16 -1 19 -3 4 -6 -2 -5 -13z"/>
</g>
</svg>
